custom-analysis
version=1
nRows=7
nColumns=42
inDegrees=no

This file contains tibia displacement and acting force.

Units are S.I. units (seconds, meters, Newtons, ...)
Angles are in degrees.

endheader
time	APT	SIT	knee_angle	aACL_R_force	pACL_R_force	aPCL_R_force	pPCL_R_force	aMCL_R_force	mMCL_R_force	pMCL_R_force	aLCL_R_force	mLCL_R_force	pLCL_R_force	aACL_R_length	pACL_R_length	aPCL_R_length	pPCL_R_length	aMCL_R_length	mMCL_R_length	pMCL_R_length	aLCL_R_length	mLCL_R_length	pLCL_R_length	aACL_R_strain	pACL_R_strain	aPCL_R_strain	pPCL_R_strain	aMCL_R_strain	mMCL_R_strain	pMCL_R_strain	aLCL_R_strain	mLCL_R_strain	pLCL_R_strain	femur_lat_meniscii_force_r	femur_lat_meniscii_torque_r	femur_med_meniscii_force_r	femur_med_meniscii_torque_r	femur_lat_tibia_force_r	femur_lat_tibia_torque_r	femur_med_tibia_force_r	femur_med_tibia_torque_r
      0.12144079	      0.01104000	      0.01938963	     62.53362476	      0.00000000	      0.00000000	    911.74201088	    592.55637846	     52.78188792	      0.00000000	      0.00000000	      0.00000000	      0.00000000	      0.00000000	      0.02964683	      0.02296453	      0.03671085	      0.03398695	      0.05997501	      0.05937103	      0.05628707	      0.05228061	      0.04734716	      0.04256513	     -0.04382034	     -0.09441217	      0.18059160	      0.12959240	      0.03357083	     -0.00706545	     -0.07312817	     -0.06603747	     -0.15929794	     -0.18679916	    122.95860973	     40.29006147	     15.09464770	      4.70112889	    201.63248762	      6.93364830	   1312.67195027	     31.47338420
      0.12185781	      0.01105688	      0.01950745	     62.85723552	      0.00000000	      0.00000000	    917.59384847	    596.52423397	     52.81551443	      0.00000000	      0.00000000	      0.00000000	      0.00000000	      0.00000000	      0.02964209	      0.02296897	      0.03674357	      0.03401095	      0.06000092	      0.05937961	      0.05628695	      0.05225182	      0.04730803	      0.04252278	     -0.04397325	     -0.09423716	      0.18164388	      0.13038990	      0.03401730	     -0.00692206	     -0.07313015	     -0.06655180	     -0.15999287	     -0.18760829	    124.66647308	     40.46450283	     14.35739024	      4.48002589	    210.41109998	      7.23071221	   1312.86922278	     31.51994766
      0.12209836	      0.01106620	      0.01957547	     63.04407218	      0.00000000	      0.00000000	    920.92781239	    598.69750221	     52.84406474	      0.00000000	      0.00000000	      0.00000000	      0.00000000	      0.00000000	      0.02963935	      0.02297164	      0.03676246	      0.03402485	      0.06001583	      0.05938459	      0.05628704	      0.05223517	      0.04728547	      0.04249845	     -0.04406158	     -0.09413187	      0.18225148	      0.13085191	      0.03427419	     -0.00683865	     -0.07312867	     -0.06684911	     -0.16039343	     -0.18807301	    123.26114456	     39.59769174	     14.21549725	      4.44188555	    216.96059679	      7.45345941	   1310.70891584	     31.47161022
      0.12241743	      0.01107821	      0.01966576	     63.29209235	      0.00000000	      0.00000000	    925.29957801	    601.46078180	     52.88063198	      0.00000000	      0.00000000	      0.00000000	      0.00000000	      0.00000000	      0.02963581	      0.02297539	      0.03678748	      0.03404329	      0.06003556	      0.05939125	      0.05628732	      0.05221304	      0.04725554	      0.04246628	     -0.04417560	     -0.09398397	      0.18305605	      0.13146476	      0.03461417	     -0.00672737	     -0.07312402	     -0.06724445	     -0.16092476	     -0.18868772	    120.50179941	     39.39049645	     13.52179217	      4.23956682	    223.48682129	      7.67386940	   1306.15097146	     31.37921500
      0.12281685	      0.01109250	      0.01977888	     63.60287701	      0.00000000	      0.00000000	    930.90197716	    605.27686568	     52.98278498	      0.00000000	      0.00000000	      0.00000000	      0.00000000	      0.00000000	      0.02963143	      0.02298033	      0.03681882	      0.03406646	      0.06006018	      0.05939964	      0.05628796	      0.05218528	      0.04721811	      0.04242619	     -0.04431703	     -0.09378893	      0.18406380	      0.13223495	      0.03503844	     -0.00658693	     -0.07311361	     -0.06774046	     -0.16158934	     -0.18945362	    117.81279584	     38.26082257	     13.41562342	      4.25752970	    234.39137084	      8.04422362	   1302.16206424	     31.25321325
      0.12321627	      0.01110605	      0.01989207	     63.91401397	      0.00000000	      0.00000000	    936.42417496	    608.87253313	     53.07318240	      0.00000000	      0.00000000	      0.00000000	      0.00000000	      0.00000000	      0.02962716	      0.02298561	      0.03685018	      0.03408973	      0.06008475	      0.05940815	      0.05628893	      0.05215748	      0.04718076	      0.04238634	     -0.04445476	     -0.09358076	      0.18507219	      0.13300835	      0.03546196	     -0.00644463	     -0.07309755	     -0.06823701	     -0.16225263	     -0.19021485	    118.46639345	     38.57238684	     13.03991667	      4.16277722	    243.05991207	      8.34053588	   1298.61834353	     31.25179821
      0.12390419	      0.01112774	      0.02008725	     64.45073531	      0.00000000	      0.00000000	    945.93442390	    615.13035157	     53.16211312	      0.00000000	      0.00000000	      0.00000000	      0.00000000	      0.00000000	      0.02962009	      0.02299548	      0.03690410	      0.03412991	      0.06012687	      0.05942297	      0.05629132	      0.05210946	      0.04711651	      0.04231820	     -0.04468271	     -0.09319162	      0.18680624	      0.13434366	      0.03618789	     -0.00619690	     -0.07305829	     -0.06909488	     -0.16339340	     -0.19151664	    115.58883258	     38.61479152	     12.05477730	      3.90443223	    257.42062679	      8.83410338	   1292.47701602	     31.15906281
